<?xml version="1.0" encoding="UTF-8"?>
<svg id="Layer_1" xmlns="http://www.w3.org/2000/svg" version="1.1" viewBox="0 0 100 100">
  <!-- Generator: Adobe Illustrator 30.0.0, SVG Export Plug-In . SVG Version: 2.1.1 Build 123)  -->
  <defs>
    <style>
      .st0 {
        fill: #fff;
      }
    </style>
  </defs>
  <path class="st0" d="M50,100c-6.91,0-13.38-1.3-19.41-3.9s-11.34-6.18-15.92-10.75-8.17-9.87-10.77-15.92S0,56.91,0,50s1.3-13.38,3.9-19.43c2.6-6.05,6.19-11.37,10.77-15.95S24.56,6.45,30.59,3.87c6.03-2.58,12.5-3.87,19.41-3.87s13.38,1.29,19.43,3.87c6.05,2.58,11.37,6.16,15.95,10.75,4.58,4.58,8.17,9.9,10.77,15.95s3.9,12.53,3.9,19.43-1.3,13.38-3.9,19.43c-2.6,6.05-6.19,11.36-10.77,15.92-4.58,4.57-9.9,8.15-15.95,10.75-6.05,2.6-12.53,3.9-19.43,3.9ZM50,90.13c5.55,0,10.75-1.04,15.59-3.12s9.11-4.96,12.8-8.64,6.57-7.94,8.64-12.78,3.1-10.04,3.1-15.59-1.03-10.75-3.1-15.61-4.95-9.12-8.64-12.78-7.96-6.53-12.8-8.62-10.04-3.12-15.59-3.12-10.71,1.04-15.56,3.12-9.12,4.95-12.8,8.62-6.56,7.92-8.64,12.78c-2.08,4.86-3.12,10.06-3.12,15.61s1.04,10.75,3.12,15.59c2.08,4.84,4.96,9.1,8.64,12.78s7.95,6.56,12.8,8.64,10.04,3.12,15.56,3.12ZM36.21,68.97c-1.26,0-2.19-.31-2.78-.92s-.9-1.42-.9-2.42v-31.36c0-1,.3-1.82.9-2.44s1.52-.94,2.78-.94h5.03c1.23,0,2.15.31,2.76.94.61.63.92,1.44.92,2.44v31.36c0,1-.31,1.81-.92,2.42s-1.53.92-2.76.92h-5.03ZM58.81,68.97c-1.23,0-2.15-.31-2.76-.92s-.92-1.42-.92-2.42v-31.36c0-1,.31-1.82.92-2.44s1.53-.94,2.76-.94h5.03c1.19,0,2.11.31,2.73.94.62.63.94,1.44.94,2.44v31.36c0,1-.31,1.81-.94,2.42s-1.54.92-2.73.92h-5.03Z"/>
</svg>