<?xml version="1.0" encoding="UTF-8"?>
<svg id="Layer_1" xmlns="http://www.w3.org/2000/svg" version="1.1" viewBox="0 0 100 100">
  <!-- Generator: Adobe Illustrator 30.0.0, SVG Export Plug-In . SVG Version: 2.1.1 Build 123)  -->
  <defs>
    <style>
      .st0 {
        fill: #fff;
      }
    </style>
  </defs>
  <path class="st0" d="M49.98,99.95c-6.9,0-13.37-1.3-19.4-3.89s-11.34-6.18-15.92-10.74-8.17-9.87-10.76-15.92C1.3,63.35,0,56.88,0,49.98s1.3-13.38,3.89-19.42,6.18-11.36,10.76-15.94S24.54,6.45,30.58,3.87,43.07,0,49.98,0s13.38,1.29,19.42,3.87,11.36,6.16,15.94,10.74c4.58,4.58,8.17,9.89,10.76,15.94,2.6,6.05,3.89,12.52,3.89,19.42s-1.3,13.38-3.89,19.42c-2.6,6.05-6.18,11.35-10.76,15.92s-9.89,8.14-15.94,10.74-12.52,3.89-19.42,3.89h0ZM49.98,90.08c5.55,0,10.74-1.04,15.58-3.12s9.1-4.96,12.8-8.64c3.69-3.68,6.57-7.93,8.64-12.77,2.06-4.84,3.1-10.03,3.1-15.58s-1.03-10.75-3.1-15.6c-2.06-4.85-4.94-9.11-8.64-12.77s-7.96-6.53-12.8-8.61-10.03-3.12-15.58-3.12-10.7,1.04-15.55,3.12-9.12,4.95-12.8,8.61-6.56,7.92-8.64,12.77c-2.08,4.85-3.12,10.05-3.12,15.6s1.04,10.74,3.12,15.58,4.96,9.1,8.64,12.77,7.94,6.56,12.8,8.64c4.86,2.08,10.04,3.12,15.55,3.12ZM41.46,68.94c-.87.52-1.73.73-2.59.65s-1.57-.4-2.15-.97-.87-1.31-.87-2.25v-32.75c0-.94.29-1.68.87-2.23s1.31-.86,2.2-.94,1.73.12,2.54.6l26.9,15.92c.77.45,1.29,1.07,1.55,1.86s.27,1.58.02,2.37-.77,1.43-1.57,1.91l-26.9,15.82h0Z"/>
</svg>