<?xml version="1.0" encoding="UTF-8"?>
<svg id="Layer_1" xmlns="http://www.w3.org/2000/svg" version="1.1" viewBox="0 0 100 100">
  <!-- Generator: Adobe Illustrator 30.0.0, SVG Export Plug-In . SVG Version: 2.1.1 Build 123)  -->
  <defs>
    <style>
      .st0 {
        fill: #fff;
      }
    </style>
  </defs>
  <path class="st0" d="M49.98,99.93c-6.9,0-13.37-1.3-19.4-3.89s-11.33-6.18-15.91-10.74-8.17-9.87-10.76-15.91C1.31,63.34,0,56.86,0,49.96s1.3-13.37,3.89-19.42c2.6-6.05,6.18-11.36,10.76-15.94S24.55,6.45,30.58,3.87,43.08,0,49.98,0s13.37,1.29,19.42,3.87,11.36,6.16,15.94,10.74c4.58,4.58,8.17,9.89,10.76,15.94s3.89,12.52,3.89,19.42-1.3,13.37-3.89,19.42c-2.59,6.05-6.18,11.35-10.76,15.91s-9.89,8.14-15.94,10.74-12.52,3.89-19.42,3.89ZM49.98,90.06c5.55,0,10.74-1.04,15.57-3.12,4.84-2.08,9.1-4.96,12.79-8.63,3.69-3.68,6.57-7.93,8.63-12.77s3.1-10.03,3.1-15.57-1.03-10.75-3.1-15.6c-2.06-4.85-4.94-9.11-8.63-12.77s-7.96-6.53-12.79-8.61-10.03-3.12-15.57-3.12-10.7,1.04-15.55,3.12-9.12,4.95-12.79,8.61-6.55,7.92-8.63,12.77c-2.08,4.85-3.12,10.05-3.12,15.6s1.04,10.74,3.12,15.57c2.08,4.84,4.96,9.09,8.63,12.77s7.94,6.55,12.79,8.63c4.85,2.08,10.04,3.12,15.55,3.12ZM39.63,75.16c-1.16,0-2.16-.45-3-1.35l-13.11-12.91c-.74-.68-1.11-1.53-1.11-2.56s.36-1.87,1.09-2.61,1.6-1.11,2.64-1.11,1.93.4,2.61,1.21l4.69,4.84,6.29,8.27,5.42-7.4,5.37-5.76c.64-.77,1.52-1.16,2.61-1.16,1.03,0,1.91.35,2.64,1.06s1.09,1.58,1.09,2.61-.35,1.9-1.06,2.61l-13.2,12.91c-.87.9-1.85,1.35-2.95,1.35h-.02ZM70,55.67c-1.23,0-2.15-.39-2.78-1.16s-.94-1.74-.94-2.9v-6.82c0-3.48-1.06-6.34-3.19-8.59s-5.01-3.36-8.66-3.36-6.29,1.14-8.22,3.41-2.9,5.12-2.9,8.54v14.32l-.29,9.29c-.03.94-.37,1.73-1.02,2.39s-1.43.99-2.37.99-1.72-.33-2.35-.99-.98-1.46-1.04-2.39l-.24-9.29v-14.32c0-3.77.76-7.14,2.27-10.11s3.68-5.3,6.48-7.01,6.14-2.56,10.01-2.56,7.27.85,10.11,2.56c2.84,1.71,5.03,4.05,6.58,7.01s2.32,6.34,2.32,10.11v6.72c0,1.23-.33,2.22-.99,3s-1.59,1.16-2.78,1.16Z"/>
</svg>