<?xml version="1.0" encoding="UTF-8"?>
<svg id="Layer_1" xmlns="http://www.w3.org/2000/svg" version="1.1" viewBox="0 0 100 100">
  <!-- Generator: Adobe Illustrator 30.0.0, SVG Export Plug-In . SVG Version: 2.1.1 Build 123)  -->
  <defs>
    <style>
      .st0 {
        fill: #fff;
      }
    </style>
  </defs>
  <path class="st0" d="M49.98,99.93c-6.9,0-13.37-1.3-19.4-3.89s-11.33-6.18-15.91-10.74-8.17-9.87-10.76-15.91S0,56.86,0,49.96s1.3-13.37,3.89-19.42,6.18-11.36,10.76-15.94S24.55,6.45,30.58,3.87,43.08,0,49.98,0s13.37,1.29,19.42,3.87,11.36,6.16,15.94,10.74c4.58,4.58,8.17,9.89,10.76,15.94s3.89,12.52,3.89,19.42-1.3,13.37-3.89,19.42c-2.59,6.05-6.18,11.35-10.76,15.91s-9.89,8.14-15.94,10.74-12.52,3.89-19.42,3.89ZM49.98,90.06c5.55,0,10.74-1.04,15.57-3.12,4.84-2.08,9.1-4.96,12.79-8.63,3.69-3.68,6.57-7.93,8.63-12.77s3.1-10.03,3.1-15.57-1.03-10.75-3.1-15.6c-2.06-4.85-4.94-9.11-8.63-12.77s-7.96-6.53-12.79-8.61-10.03-3.12-15.57-3.12-10.7,1.04-15.55,3.12-9.12,4.95-12.79,8.61-6.55,7.92-8.63,12.77c-2.08,4.85-3.12,10.05-3.12,15.6s1.04,10.74,3.12,15.57,4.96,9.09,8.63,12.77,7.94,6.55,12.79,8.63c4.85,2.08,10.04,3.12,15.55,3.12ZM31.64,54.56c-1.45,0-2.64-.4-3.58-1.19s-1.4-1.89-1.4-3.31.46-2.5,1.38-3.34,2.12-1.26,3.6-1.26h36.66c1.52,0,2.72.42,3.63,1.26s1.35,1.95,1.35,3.34-.47,2.52-1.4,3.31-2.13,1.19-3.58,1.19H31.64Z"/>
</svg>