<?xml version="1.0" encoding="UTF-8"?>
<svg id="Layer_1" xmlns="http://www.w3.org/2000/svg" version="1.1" viewBox="0 0 100 100">
  <!-- Generator: Adobe Illustrator 30.0.0, SVG Export Plug-In . SVG Version: 2.1.1 Build 123)  -->
  <defs>
    <style>
      .st0 {
        fill: #fff;
      }
    </style>
  </defs>
  <path class="st0" d="M49.86,100.19c-6.92,0-13.4-1.3-19.45-3.9s-11.36-6.19-15.95-10.77-8.19-9.89-10.79-15.95S-.24,57.01-.24,50.1s1.3-13.41,3.9-19.47,6.2-11.39,10.79-15.98c4.59-4.59,9.91-8.18,15.96-10.77S42.94,0,49.86,0s13.41,1.29,19.47,3.88c6.06,2.59,11.39,6.18,15.98,10.77s8.19,9.92,10.79,15.98,3.9,12.55,3.9,19.47-1.3,13.41-3.9,19.47c-2.6,6.06-6.2,11.38-10.79,15.95s-9.92,8.16-15.98,10.77c-6.06,2.6-12.55,3.9-19.47,3.9ZM49.86,90.3c5.56,0,10.77-1.04,15.62-3.13,4.85-2.09,9.13-4.97,12.83-8.66s6.59-7.95,8.66-12.8c2.07-4.85,3.1-10.05,3.1-15.62s-1.03-10.77-3.1-15.64-4.95-9.13-8.66-12.8-7.98-6.55-12.83-8.63-10.05-3.13-15.62-3.13-10.73,1.04-15.59,3.13-9.14,4.96-12.83,8.63-6.57,7.94-8.66,12.8c-2.09,4.86-3.13,10.08-3.13,15.64s1.04,10.77,3.13,15.62,4.97,9.12,8.66,12.8c3.69,3.69,7.96,6.57,12.83,8.66,4.87,2.09,10.06,3.13,15.59,3.13ZM32.06,54.56c-1.36,0-2.47-.42-3.32-1.26s-1.29-1.91-1.29-3.2c0-1.36.42-2.47,1.26-3.32s1.96-1.29,3.35-1.29h35.64c1.36,0,2.46.43,3.3,1.29s1.26,1.96,1.26,3.32-.42,2.36-1.26,3.2-1.94,1.26-3.3,1.26c0,0-35.64,0-35.64,0ZM54.41,67.89c0,1.33-.43,2.42-1.29,3.27s-1.96,1.29-3.32,1.29-2.36-.43-3.2-1.29-1.26-1.95-1.26-3.27v-35.69c0-1.33.42-2.42,1.26-3.27s1.91-1.29,3.2-1.29c1.36,0,2.47.42,3.32,1.26s1.29,1.94,1.29,3.3v35.69Z"/>
</svg>